# xmcd
#
# Track frame offsets:
#	150
#	18153
#	31536
#	47648
#	61870
#	75229
#	87255
#	100363
#	114153
#	125592
#	141136
#	153886
#	168990
#	178249
#	192210
#	206444
#	217194
#	227571
#	240092
#	252050
#
# Disc length: 3558 seconds
# Revision: 0
# Processed by: cddbd v1.5.2PL0 Copyright (c) Steve Scherf et al.
# Submitted via: dBpowerAMP V12.0
#
DISCID=f10de414
DTITLE=Barbara Fairchild - Mississippi - Free and Easy
DYEAR=2013
DGENRE=Country
TTITLE0=Mississippi
TTITLE1=Let Me Love You Once Before You Go
TTITLE2=Under Your Spell Again
TTITLE3=You Are Always There
TTITLE4=Touch My Heart
TTITLE5=Cheatin' Is
TTITLE6=The Music Of Love
TTITLE7=Did It Rain?
TTITLE8=What You Left My Memory
TTITLE9=Let Jesse Rod This Train
TTITLE10=She Can't Give It Away
TTITLE11=For All The Right Reasons
TTITLE12=The Other Side Of The Morning
TTITLE13=Sing The Blues, Bluebirds
TTITLE14=Then The Morning Comes
TTITLE15=Someone Loves Him
TTITLE16=Love Me Like You Never Will Again
TTITLE17=This Haunted House
TTITLE18=Good Side Of Tomorrow
TTITLE19=Painted Faces
EXTD=
EXTT0=
EXTT1=
EXTT2=
EXTT3=
EXTT4=
EXTT5=
EXTT6=
EXTT7=
EXTT8=
EXTT9=
EXTT10=
EXTT11=
EXTT12=
EXTT13=
EXTT14=
EXTT15=
EXTT16=
EXTT17=
EXTT18=
EXTT19=
PLAYORDER=
